<svg xmlns="http://www.w3.org/2000/svg" width="20" height="25" viewBox="0 0 20 25" xmlns:xlink="http://www.w3.org/1999/xlink">
  <defs>
    <path id="a" d="M12.3223305,0 L2,0 L2,0 C0.8954305,2.02906125e-16 -1.3527075e-16,0.8954305 0,2 L0,2 L0,23 C1.3527075e-16,24.1045695 0.8954305,25 2,25 L18,25 C19.1045695,25 20,24.1045695 20,23 L20,7.67766953 L12.3223305,9.43689571e-16 Z"/>
    <path id="b" d="M12,0 L18,0 C19.1045695,-2.16501571e-15 20,0.8954305 20,2 L20,8 L12,-9.43689571e-16 Z"/>
  </defs>
  <g fill="none" fill-rule="evenodd">
    <use fill="#FFFFFF" xlink:href="#a"/>
    <path stroke="#BEC6C6" d="M12.1152237,0.5 L2,0.5 C1.17157288,0.5 0.5,1.17157288 0.5,2 L0.5,23 C0.5,23.8284271 1.17157288,24.5 2,24.5 L18,24.5 C18.8284271,24.5 19.5,23.8284271 19.5,23 L19.5,7.88477631 L12.1152237,0.5 Z"/>
    <path fill="#F3F6F6" d="M13.2481866,7 L19,7 L19,12.7518134 L13.2481866,7 Z"/>
    <g transform="rotate(180 16 4)">
      <use fill="#BEC6C6" xlink:href="#b"/>
      <path stroke="#BEC6C6" d="M13.2071068,0.5 L19.5,6.79289322 L19.5,2 C19.5,1.17157288 18.8284271,0.5 18,0.5 L13.2071068,0.5 Z"/>
    </g>
  </g>
</svg>
